<svg width="1098" height="703" viewBox="0 0 1098 703" fill="none" xmlns="http://www.w3.org/2000/svg">
<path d="M418.146 38.4919C402.662 49.0336 358.516 91.8593 360.493 94.1653C361.481 95.1536 370.047 96.1419 379.601 96.4713C407.281 97.4778 465.772 101.027 477.776 133.038L480.741 140.944C640.459 -44.4731 1155.4 396.69 986.115 614.333C982.491 618.615 976.231 626.522 971.948 631.792C962.394 643.652 964.042 645.958 978.537 640.687C998.304 634.098 1030.26 611.697 1047.72 592.59C1133.98 498.253 1107.83 332.365 980.185 285.563C968.325 280.951 966.018 278.645 962.395 265.797C940.498 189.739 877.309 117.968 792.07 135.014C762.749 140.944 758.137 139.956 755.501 127.767C751.877 113.602 726.51 80.3293 703.119 59.5753C627.28 -8.52067 502.666 -21.8754 418.146 38.4919Z" fill="white"/>
<path d="M460.094 347.217C472.55 342.72 483.971 334.37 490.404 332.064C495.502 329.428 507.538 327.22 520.054 322.84C489.853 196.38 627.125 165.702 667.647 210.175C674.895 210.175 712.781 177.891 712.781 171.303C598.9 71.2914 421.22 187.115 460.094 347.217Z" fill="white"/>
<path d="M283.996 166.032C295.856 155.49 319.906 143.96 342.308 138.03C377.605 128.444 409.615 133.871 442.789 146.595L406.55 196.01C345.602 189.421 338.684 201.281 227.99 309.992C186.809 350.512 138.38 398.279 120.26 416.068C96.1218 439.343 67.1292 472.012 64.5835 507.649C62.9363 536.968 68.8663 554.098 88.9626 576.17C122.896 614.054 164.736 618.337 214.153 590.006C227.001 582.429 239.85 576.499 242.815 576.499C254.112 572.019 268.827 587.81 274.772 596.265C315.624 666.104 363.613 629.098 382.501 601.865C385.745 585.646 401.045 569.911 418.081 569.911C428.953 569.911 433.895 572.217 445.096 582.1C467.828 603.183 471.781 605.819 493.195 614.713C525.076 627.725 560.83 626.247 591.7 611.748C618.056 598.901 639.47 580.123 651.66 559.04C664.436 536.928 670.109 509.616 670.109 484.26H732.704C732.704 510.165 731.251 534.759 720.844 559.04C684.364 636.555 622.928 687.049 533.388 686.529C494.141 686.19 463.816 673.25 429.941 655.233C398.825 683.466 370.077 703 325.836 703C294.896 703 270.625 693.67 247.098 673.351C232.931 660.504 223.048 659.186 203.611 667.422C187.468 674.34 136.733 675.328 118.284 669.069C5.31412 631.415 -39.5882 498.515 40.8632 405.197C49.0994 395.643 97.1989 346.558 147.934 296.156C230.625 214.458 256.652 189.421 283.996 166.032Z" fill="white"/>
<path d="M696.465 236.2C696.465 238.506 754.777 286.603 811.772 344.253C859.638 392.336 952.51 464.695 911.265 547.18C894.183 582.607 837.362 616.286 797.935 597.253C776.191 587.041 771.25 586.053 768.614 590.335C763.343 598.242 751.812 638.761 753.13 644.691C753.789 647.985 761.037 653.256 770.591 656.88C847.547 687.435 936.768 642.431 970.895 570.899C1020.81 461.48 921.469 374.733 851.964 303.403C765.978 215.117 744.564 194.363 739.623 194.363C729.567 195.48 696.465 225.773 696.465 236.2Z" fill="white"/>
<path d="M363.723 438.139C363.723 465.43 341.598 487.554 314.306 487.554C287.014 487.554 264.889 465.43 264.889 438.139C264.889 410.849 287.014 388.725 314.306 388.725C341.598 388.725 363.723 410.849 363.723 438.139Z" fill="white"/>
</svg>
