<svg  width="19" height="16" viewBox="0 0 19 16" fill="none" xmlns="http://www.w3.org/2000/svg+xml">
<path d="M0 0.252632C0 0.113107 0.111929 0 0.25 0H18.75C18.8881 0 19 0.113107 19 0.252632V2.94737C19 3.08689 18.8881 3.2 18.75 3.2H0.25C0.111929 3.2 0 3.08689 0 2.94737V0.252632Z" fill="#F2F7F9"/>
<path d="M0 6.65263C0 6.51311 0.111929 6.4 0.25 6.4H13.4722C13.6103 6.4 13.7222 6.51311 13.7222 6.65263V9.34737C13.7222 9.48689 13.6103 9.6 13.4722 9.6H0.25C0.111929 9.6 0 9.48689 0 9.34737V6.65263Z" fill="#F2F7F9"/>
<path d="M0 13.0526C0 12.9131 0.111929 12.8 0.25 12.8H8.19444C8.33252 12.8 8.44444 12.9131 8.44444 13.0526V15.7474C8.44444 15.8869 8.33252 16 8.19444 16H0.25C0.111928 16 0 15.8869 0 15.7474V13.0526Z" fill="#F2F7F9"/>
</svg>
